<?xml version="1.0" standalone="no"?>
<!DOCTYPE svg PUBLIC "-//W3C//DTD SVG 20010904//EN"
 "http://www.w3.org/TR/2001/REC-SVG-20010904/DTD/svg10.dtd">
<svg version="1.0" xmlns="http://www.w3.org/2000/svg"
 width="256.000000pt" height="256.000000pt" viewBox="0 0 256.000000 256.000000"
 preserveAspectRatio="xMidYMid meet">
<metadata>
Created by potrace 1.11, written by Peter Selinger 2001-2013
</metadata>
<g transform="translate(0.000000,256.000000) scale(0.100000,-0.100000)"
fill="#000000" stroke="none">
<path d="M820 2409 c0 -4 -7 -6 -17 -5 -21 3 -104 -16 -185 -43 -62 -21 -146
-71 -204 -121 -37 -32 -94 -104 -94 -119 0 -6 -4 -11 -8 -11 -8 0 -39 -88 -49
-139 -7 -36 -10 -171 -4 -177 3 -2 6 -10 7 -17 9 -43 15 -60 38 -106 52 -102
168 -191 316 -241 36 -12 72 -25 80 -28 8 -3 20 -7 25 -8 6 -1 13 -3 18 -4 10
-4 18 -6 52 -14 17 -4 44 -12 61 -17 l30 -9 0 -236 0 -235 -35 6 c-162 31
-262 130 -275 275 -3 28 -7 35 -25 34 -11 0 -21 2 -21 6 0 3 -22 4 -48 0 -27
-3 -61 -3 -75 1 -15 4 -27 4 -27 1 0 -4 -34 -7 -75 -7 -41 0 -75 3 -75 7 0 4
-7 5 -16 1 -14 -5 -15 -18 -11 -82 7 -98 10 -111 50 -195 49 -103 139 -196
247 -255 40 -21 146 -60 182 -66 18 -3 40 -8 48 -10 15 -4 72 -13 120 -19 14
-2 28 -4 31 -4 3 -1 5 -104 4 -229 0 -126 1 -233 3 -240 3 -9 121 -11 472 -11
450 0 503 3 615 31 11 3 27 7 35 9 25 5 154 73 179 94 63 52 120 133 148 211
22 60 25 258 5 318 -21 64 -53 122 -89 165 -35 40 -139 110 -166 110 -8 0 -20
6 -26 14 -9 11 -7 15 12 20 13 3 51 31 85 63 87 82 116 157 116 293 0 75 -8
131 -23 158 -6 12 -9 22 -6 22 10 0 -57 100 -73 110 -10 5 -13 10 -7 10 13 0
-61 50 -74 50 -6 0 -11 5 -11 12 0 6 -3 8 -7 5 -3 -4 -11 -3 -17 2 -12 10
-112 41 -154 47 -25 4 -85 8 -229 15 -29 1 -53 7 -53 13 -9 195 -81 329 -230
427 -76 51 -136 75 -227 94 -13 3 -35 8 -50 11 -16 3 -40 7 -55 7 -16 1 -28 5
-28 9 0 5 -5 8 -11 8 -5 0 -7 -5 -3 -12 5 -8 3 -8 -7 -2 -16 11 -189 13 -189
3z m194 -310 c122 -21 209 -100 219 -198 2 -15 7 -33 11 -40 6 -10 -5 -12 -50
-11 -33 1 -115 1 -184 1 l-125 -1 1 -65 c1 -36 -1 -65 -5 -65 -15 0 -106 33
-118 43 -7 5 -13 7 -13 3 0 -9 -51 18 -75 41 -31 27 -43 64 -40 116 8 140 167
214 379 176z m731 -563 c107 -26 154 -88 151 -196 -2 -66 -19 -112 -52 -141
-30 -26 -82 -50 -114 -52 -17 -1 -30 -6 -30 -12 -1 -23 -25 33 -25 60 -4 118
-74 234 -195 326 l-35 27 135 -3 c74 -1 149 -5 165 -9z m-455 -382 c0 -8 -4
-12 -10 -9 -5 3 -10 10 -10 16 0 5 5 9 10 9 6 0 10 -7 10 -16z m480 -288 c99
-14 178 -82 196 -170 5 -23 5 -99 1 -131 -8 -51 -63 -119 -117 -141 -57 -25
-96 -28 -340 -28 l-235 -1 0 109 c0 86 3 110 15 117 8 4 47 22 85 40 39 18 72
35 75 38 3 3 22 19 43 34 21 16 56 52 79 80 22 29 47 55 56 58 16 6 84 4 142
-5z"/>
</g>
</svg>
