<svg version="1" xmlns="http://www.w3.org/2000/svg" viewBox="0 0 1000 1000"><path d="M100.9 14c-21.6 2.6-42.7 12.9-58.2 28.6-12.9 13-21.4 27.8-26.5 46.3l-2.7 9.6V500c0 387.9.1 401.8 1.9 409.5 8 34.6 33 62.3 66.3 73.4 16.1 5.4-9.2 5.1 418.8 5.1 349.4 0 396.3-.2 404-1.5 21.5-3.8 38.8-12.7 54-28 12.9-12.9 21.4-27.5 26.4-45.4l2.6-9.6.3-396.5c.2-294.2 0-399-.8-406-5-40.7-33.8-73.5-74.5-84.8l-10-2.7-397.5-.1c-218.6-.1-400.5.2-404.1.6zm216.6 257.6c61 7.7 102.6 32.7 125.9 75.6 7.9 14.4 13.6 38.1 13.6 55.9v8.9H363.3l-.7-6.1c-2.5-23.9-13.5-40.8-32.7-50.3-11.5-5.6-20.9-8.1-37-9.7-31.2-3-54.8 3-69.5 17.6-7.3 7.2-10.9 13.8-12.5 23-2.3 13.6.7 26.2 8.1 33.6 11.4 11.4 34.5 19.2 117.9 39.8 36.2 9 47.1 12.5 61.6 19.6 17.1 8.4 27.1 15.1 37.9 25.5 27 26 36.7 50.9 35.3 90.5-1.3 35.8-12.5 62.4-36.1 86.1-19.1 19-45 33.1-75.4 40.9-58.1 14.9-132.3 9.1-178.1-13.9-40.9-20.6-67.6-53.2-77.1-94-2.2-9.4-4-24.7-4-34.1V574h93.8l.7 6.7c2.2 23.4 10.5 40.7 25.7 53.4 22.4 18.7 65.9 26.3 104.7 18.3 20.8-4.3 38.7-15.3 46.5-28.6 7.8-13.4 7.3-33.3-1.2-45.8-10.8-15.9-32.3-26-82-38.6-37.5-9.5-60.5-15.9-77-21.5-36.4-12.4-61.7-29.1-77.1-50.9-12.9-18.3-17.9-33.6-18.8-58.1-1.5-37.8 9.5-66.6 35.2-92.4 26.8-26.9 66.6-43 116-46.9 8.9-.7 37.7.5 50 2zM778 282.3c45.5 7.4 71.8 22.8 86.9 50.9 9.4 17.3 12.6 33.2 11.8 59.6-.3 13.9-.9 19.4-2.6 25.7-6.7 24.8-21.5 43-47.9 58.5l-7.3 4.3 5.8 1.9c9.8 3.3 23.6 10.4 31.9 16.6 21.5 15.9 34.9 39.2 39.9 69.1 2.6 15.4 1.7 44-1.8 57.2-10.2 38.7-36.8 66.7-78.4 82.4-9.1 3.5-23.2 7.1-37.8 9.7-11.8 2.2-14 2.2-130.7 2.6l-118.8.3V279.9l119.3.4c106.3.3 120.3.5 129.7 2z"/><path d="M626 407v51.1l57.3-.3c56.7-.3 57.3-.4 64.2-2.7 24.8-8.2 35.5-23.1 35.5-49.2 0-25.2-11.7-40.1-36.9-47.2-7.3-2-10-2.1-63.8-2.5l-56.3-.3V407zM626 585v60.1l61.8-.4c60-.3 61.9-.4 70.2-2.6 12.7-3.3 21.8-8.2 28.8-15.4 6.2-6.6 8.7-10.7 11.8-19.7 2.6-7.6 2.7-31.6.1-40.8-4.4-16-12.8-26.3-26.9-33.1-16.3-7.7-13.8-7.5-83.5-7.9l-62.3-.3V585z"/></svg>
